<svg width="33" height="33" viewBox="0 0 33 33" fill="none" xmlns="http://www.w3.org/2000/svg">
<g filter="url(#filter0_d_29_78)">
<path d="M28.6582 23.6162L23.79 18.748C23.5703 18.5283 23.2725 18.4062 22.96 18.4062H22.1641C23.5117 16.6826 24.3125 14.5146 24.3125 12.1562C24.3125 6.5459 19.7666 2 14.1562 2C8.5459 2 4 6.5459 4 12.1562C4 17.7666 8.5459 22.3125 14.1562 22.3125C16.5146 22.3125 18.6826 21.5117 20.4062 20.1641V20.96C20.4062 21.2725 20.5283 21.5703 20.748 21.79L25.6162 26.6582C26.0752 27.1172 26.8174 27.1172 27.2715 26.6582L28.6533 25.2764C29.1123 24.8174 29.1123 24.0752 28.6582 23.6162ZM14.1562 18.4062C10.7041 18.4062 7.90625 15.6133 7.90625 12.1562C7.90625 8.7041 10.6992 5.90625 14.1562 5.90625C17.6084 5.90625 20.4062 8.69922 20.4062 12.1562C20.4062 15.6084 17.6133 18.4062 14.1562 18.4062Z" fill="#B63031"/>
</g>
<defs>
<filter id="filter0_d_29_78" x="0" y="0" width="32.9982" height="33.0024" filterUnits="userSpaceOnUse" color-interpolation-filters="sRGB">
<feFlood flood-opacity="0" result="BackgroundImageFix"/>
<feColorMatrix in="SourceAlpha" type="matrix" values="0 0 0 0 0 0 0 0 0 0 0 0 0 0 0 0 0 0 127 0" result="hardAlpha"/>
<feOffset dy="2"/>
<feGaussianBlur stdDeviation="2"/>
<feComposite in2="hardAlpha" operator="out"/>
<feColorMatrix type="matrix" values="0 0 0 0 0 0 0 0 0 0 0 0 0 0 0 0 0 0 0.25 0"/>
<feBlend mode="normal" in2="BackgroundImageFix" result="effect1_dropShadow_29_78"/>
<feBlend mode="normal" in="SourceGraphic" in2="effect1_dropShadow_29_78" result="shape"/>
</filter>
</defs>
</svg>
